<svg width="20" height="20" viewBox="0 0 20 20" fill="none" xmlns="http://www.w3.org/2000/svg">
<path d="M4.99996 11.6667L6.20829 9.25C6.34743 8.97388 6.56064 8.74191 6.82407 8.58002C7.0875 8.41814 7.39076 8.33272 7.69996 8.33333H16.6666C16.9212 8.33289 17.1726 8.39078 17.4013 8.50257C17.6301 8.61436 17.8302 8.77707 17.9863 8.97822C18.1424 9.17937 18.2503 9.41361 18.3018 9.66296C18.3533 9.91231 18.3469 10.1701 18.2833 10.4167L16.9916 15.4167C16.8991 15.7749 16.6901 16.0922 16.3973 16.3185C16.1046 16.5448 15.745 16.6673 15.375 16.6667H3.33329C2.89127 16.6667 2.46734 16.4911 2.15478 16.1785C1.84222 15.866 1.66663 15.442 1.66663 15V4.16667C1.66663 3.25 2.41663 2.5 3.33329 2.5H6.60829C6.8828 2.50142 7.15272 2.57063 7.39404 2.70147C7.63537 2.83231 7.84065 3.02073 7.99163 3.25L8.67496 4.25C8.82594 4.47927 9.03121 4.66769 9.27254 4.79853C9.51387 4.92937 9.78378 4.99858 10.0583 5H15C15.442 5 15.8659 5.17559 16.1785 5.48816C16.491 5.80072 16.6666 6.22464 16.6666 6.66667V8.33333" stroke="white" stroke-width="2" stroke-linecap="round" stroke-linejoin="round"/>
</svg>
